<svg xmlns="http://www.w3.org/2000/svg" xmlns:xlink="http://www.w3.org/1999/xlink" width="2000" zoomAndPan="magnify" viewBox="0 0 1500 1499.999933" height="2000" preserveAspectRatio="xMidYMid meet" version="1.0"><defs><g/><clipPath id="359c130909"><path d="M 171.367188 419.507812 L 1182.367188 419.507812 L 1182.367188 1003.757812 L 171.367188 1003.757812 Z M 171.367188 419.507812 " clip-rule="nonzero"/></clipPath><clipPath id="0477229839"><rect x="0" width="980" y="0" height="146"/></clipPath><clipPath id="4e4e2b1372"><rect x="0" width="707" y="0" height="344"/></clipPath></defs><rect x="-150" width="1800" fill="#ffffff" y="-149.999993" height="1799.99992" fill-opacity="1"/><rect x="-150" width="1800" fill="#ffffff" y="-149.999993" height="1799.99992" fill-opacity="1"/><g clip-path="url(#359c130909)"><path fill="#2148f1" d="M 171.535156 783.550781 L 171.722656 776.96875 L 172.179688 770.804688 C 173.402344 754.363281 176.507812 737.933594 181.351562 721.976562 C 186.152344 705.992188 192.867188 690.523438 201.140625 675.886719 C 209.457031 661.285156 219.359375 647.511719 230.65625 634.898438 C 242 622.339844 254.648438 610.859375 268.519531 600.929688 C 282.414062 591.050781 297.371094 582.515625 313.179688 575.800781 C 328.980469 569.082031 345.539062 563.9375 362.496094 560.785156 C 379.460938 557.609375 396.722656 556.210938 413.984375 556.695312 C 419.746094 556.867188 425.507812 557.265625 431.261719 557.847656 C 433.082031 555.078125 434.929688 552.332031 436.832031 549.628906 C 445 538.074219 453.980469 527.113281 463.640625 516.769531 C 473.289062 506.425781 483.714844 496.789062 494.730469 487.886719 C 505.753906 479.003906 517.339844 470.78125 529.515625 463.523438 C 541.667969 456.234375 554.324219 449.765625 567.363281 444.191406 C 580.414062 438.640625 593.863281 434.035156 607.542969 430.339844 C 621.222656 426.613281 635.171875 423.941406 649.203125 422.21875 C 663.234375 420.480469 677.355469 419.671875 691.433594 419.921875 L 701.300781 420.242188 L 706.816406 420.582031 L 712.449219 420.960938 C 716.113281 421.265625 719.5 421.664062 723.03125 422.023438 C 726.535156 422.402344 730.015625 422.957031 733.503906 423.460938 C 747.414062 425.632812 761.175781 428.75 774.648438 432.777344 C 788.097656 436.855469 801.257812 441.875 813.976562 447.734375 C 826.703125 453.589844 838.949219 460.421875 850.679688 467.953125 C 862.425781 475.484375 873.542969 483.90625 884.058594 492.960938 C 894.578125 502.003906 904.390625 511.824219 913.492188 522.203125 C 926.488281 537.035156 937.910156 553.128906 947.628906 570.113281 C 956.160156 569.367188 964.703125 569.105469 973.195312 569.296875 C 975.398438 569.359375 977.601562 569.453125 979.796875 569.570312 L 980.003906 569.585938 C 979.871094 569.585938 981.53125 569.605469 980.871094 569.59375 L 980.964844 569.605469 L 981.316406 569.636719 L 982.03125 569.707031 L 983.464844 569.828125 L 986.328125 570.09375 L 989.1875 570.351562 C 990.175781 570.441406 990.996094 570.492188 992.25 570.664062 L 999.210938 571.542969 C 1003.96875 572.050781 1008.070312 572.980469 1012.421875 573.777344 C 1014.574219 574.15625 1016.695312 574.6875 1018.820312 575.207031 L 1025.1875 576.761719 C 1029.394531 577.921875 1033.570312 579.167969 1037.710938 580.472656 L 1043.855469 582.648438 C 1045.910156 583.382812 1047.949219 584.097656 1049.941406 584.964844 C 1053.949219 586.628906 1057.972656 588.210938 1061.839844 590.128906 L 1067.691406 592.90625 L 1073.375 595.964844 C 1080.960938 600.023438 1088.183594 604.667969 1095.1875 609.515625 C 1098.625 612.042969 1102.046875 614.585938 1105.363281 617.230469 L 1110.253906 621.300781 L 1112.671875 623.34375 L 1115.019531 625.488281 L 1119.652344 629.792969 C 1121.195312 631.234375 1122.632812 632.785156 1124.117188 634.273438 C 1125.574219 635.796875 1127.085938 637.246094 1128.480469 638.816406 L 1132.667969 643.511719 L 1134.742188 645.871094 L 1136.699219 648.320312 L 1140.597656 653.21875 C 1143.117188 656.546875 1145.53125 659.949219 1147.90625 663.332031 C 1152.480469 670.265625 1156.871094 677.253906 1160.554688 684.617188 C 1161.484375 686.453125 1162.429688 688.273438 1163.320312 690.105469 L 1165.828125 695.71875 C 1167.574219 699.402344 1168.953125 703.261719 1170.453125 707.03125 C 1171.230469 708.910156 1171.820312 710.859375 1172.476562 712.777344 L 1174.382812 718.535156 C 1175.425781 722.464844 1176.578125 726.3125 1177.464844 730.238281 C 1178.285156 734.179688 1179.292969 738.050781 1179.863281 742.019531 L 1180.835938 747.917969 C 1181.140625 749.878906 1181.28125 751.878906 1181.507812 753.851562 C 1181.699219 755.828125 1181.949219 757.789062 1182.101562 759.761719 L 1182.414062 765.6875 C 1182.734375 769.609375 1182.589844 773.566406 1182.578125 777.480469 C 1182.597656 779.429688 1182.488281 781.386719 1182.367188 783.335938 L 1182.019531 789.175781 C 1181.660156 793.050781 1181.152344 796.902344 1180.671875 800.730469 C 1179.945312 796.910156 1179.40625 793.117188 1178.632812 789.359375 L 1177.402344 783.753906 C 1177.015625 781.898438 1176.617188 780.039062 1176.085938 778.210938 C 1175.066406 774.546875 1174.1875 770.882812 1172.984375 767.304688 L 1171.289062 761.945312 C 1170.6875 760.167969 1169.996094 758.421875 1169.359375 756.667969 C 1168.6875 754.921875 1168.105469 753.164062 1167.359375 751.453125 L 1165.199219 746.316406 C 1163.851562 742.878906 1162.085938 739.601562 1160.542969 736.285156 C 1158.929688 732.988281 1157.074219 729.800781 1155.359375 726.585938 C 1153.417969 723.484375 1151.695312 720.300781 1149.679688 717.265625 C 1147.640625 714.269531 1145.761719 711.195312 1143.546875 708.335938 L 1140.34375 703.996094 C 1139.242188 702.589844 1138.078125 701.214844 1136.953125 699.824219 C 1132.492188 694.242188 1127.644531 689.011719 1122.683594 684 C 1120.125 681.566406 1117.5625 679.132812 1114.9375 676.808594 L 1110.925781 673.40625 L 1108.925781 671.714844 L 1106.84375 670.109375 L 1102.722656 666.90625 C 1101.351562 665.835938 1099.894531 664.886719 1098.488281 663.867188 C 1097.054688 662.886719 1095.6875 661.832031 1094.214844 660.90625 L 1089.851562 658.128906 L 1087.671875 656.730469 L 1085.441406 655.433594 L 1080.980469 652.863281 C 1077.976562 651.21875 1074.914062 649.6875 1071.875 648.15625 C 1065.6875 645.285156 1059.492188 642.542969 1053.105469 640.390625 L 1048.335938 638.746094 L 1043.507812 637.304688 C 1040.335938 636.277344 1037.050781 635.570312 1033.824219 634.765625 C 1032.222656 634.328125 1030.578125 634.03125 1028.945312 633.722656 L 1024.054688 632.777344 C 1020.777344 632.253906 1017.5 631.773438 1014.234375 631.335938 L 1009.316406 630.878906 C 1007.671875 630.714844 1006.042969 630.53125 1004.394531 630.5 C 1001.148438 630.40625 997.699219 630.09375 994.8125 630.210938 L 990.332031 630.210938 C 989.6875 630.191406 988.597656 630.261719 987.667969 630.296875 L 984.796875 630.40625 L 981.933594 630.519531 L 980.492188 630.578125 L 979.777344 630.601562 L 979.421875 630.621094 L 979.328125 630.621094 C 978.601562 630.621094 980.207031 630.640625 980.023438 630.640625 L 979.871094 630.652344 C 978.234375 630.785156 976.625 630.925781 975.003906 631.101562 C 968.539062 631.78125 962.152344 632.761719 955.863281 634.144531 C 949.585938 635.53125 943.410156 637.238281 937.367188 639.246094 L 914.179688 646.953125 L 899.101562 622.515625 C 887.945312 604.429688 874.511719 587.957031 859.335938 573.542969 C 851.753906 566.328125 843.699219 559.683594 835.332031 553.527344 C 826.9375 547.382812 818.148438 541.894531 809.121094 536.902344 C 800.085938 531.917969 790.714844 527.644531 781.171875 523.90625 C 771.628906 520.179688 761.859375 517.128906 751.949219 514.730469 C 742.046875 512.292969 732.003906 510.527344 721.890625 509.453125 C 719.359375 509.238281 716.839844 508.925781 714.304688 508.75 C 711.792969 508.605469 709.152344 508.382812 706.761719 508.277344 L 699.75 508.074219 L 691.433594 508.09375 C 681.253906 508.363281 671.136719 509.179688 661.144531 510.699219 C 651.148438 512.210938 641.285156 514.414062 631.601562 517.167969 C 621.917969 519.949219 612.441406 523.417969 603.222656 527.460938 C 593.992188 531.472656 585.03125 536.105469 576.421875 541.332031 C 567.828125 546.585938 559.496094 552.292969 551.625 558.601562 C 543.746094 564.898438 536.304688 571.738281 529.265625 578.972656 C 522.242188 586.230469 515.726562 593.976562 509.71875 602.101562 C 503.679688 610.207031 498.191406 618.730469 493.296875 627.582031 L 475.945312 658.988281 L 442.753906 649.6875 C 432.113281 646.699219 421.160156 644.683594 410.03125 643.953125 C 398.898438 643.246094 387.636719 643.480469 376.570312 645.03125 C 365.503906 646.574219 354.539062 649.125 343.941406 652.933594 C 333.351562 656.730469 323.039062 661.527344 313.320312 667.46875 C 303.617188 673.421875 294.4375 680.382812 286.066406 688.28125 C 277.65625 696.148438 270 704.917969 263.3125 714.4375 C 261.582031 716.789062 260.09375 719.289062 258.441406 721.707031 C 256.902344 724.179688 255.464844 726.71875 253.953125 729.230469 C 252.625 731.835938 251.195312 734.394531 249.894531 737.03125 C 248.707031 739.703125 247.3125 742.316406 246.207031 745.039062 C 241.558594 755.859375 238.035156 767.238281 235.648438 778.96875 L 234.753906 783.386719 L 234.132812 787.429688 C 233.925781 788.832031 233.679688 790.042969 233.480469 791.59375 L 233 796.910156 L 232.757812 799.566406 L 232.636719 800.902344 L 232.609375 801.230469 L 232.59375 801.394531 C 232.582031 802.140625 232.59375 800.578125 232.59375 800.78125 L 232.566406 801.355469 L 232.34375 805.894531 C 232.289062 807.414062 232.128906 808.9375 232.152344 810.457031 L 232.160156 815.019531 C 232.183594 827.207031 233.511719 839.445312 236.058594 851.558594 C 238.613281 863.675781 242.519531 875.617188 247.65625 887.152344 C 252.765625 898.695312 259.089844 909.882812 266.644531 920.34375 C 274.230469 930.765625 282.738281 940.796875 292.523438 949.667969 C 302.285156 958.539062 312.9375 966.746094 324.574219 973.636719 L 328.9375 976.246094 L 333.417969 978.679688 C 334.921875 979.472656 336.398438 980.363281 337.945312 981.074219 L 342.570312 983.292969 C 345.640625 984.851562 348.84375 986.066406 352.019531 987.433594 L 354.40625 988.457031 L 356.835938 989.351562 L 361.71875 991.171875 C 363.347656 991.8125 365.007812 992.304688 366.671875 992.832031 L 371.679688 994.410156 C 375.035156 995.40625 378.441406 996.265625 381.859375 997.203125 C 385.273438 998.027344 388.71875 998.683594 392.210938 999.488281 L 402.820312 1001.347656 C 399.25 1001.808594 395.691406 1002.234375 392.121094 1002.621094 C 388.523438 1002.871094 384.878906 1003.09375 381.222656 1003.222656 C 377.601562 1003.214844 373.929688 1003.359375 370.277344 1003.203125 L 364.789062 1002.902344 C 362.957031 1002.796875 361.109375 1002.726562 359.289062 1002.503906 C 351.957031 1001.828125 344.597656 1000.777344 337.328125 999.183594 L 331.859375 997.988281 C 330.023438 997.609375 328.25 997.050781 326.429688 996.582031 L 320.996094 995.101562 C 319.203125 994.546875 317.421875 993.945312 315.640625 993.34375 C 301.390625 988.515625 287.414062 982.230469 274.320312 974.21875 C 271.0625 972.183594 267.855469 970.0625 264.625 967.949219 C 261.519531 965.6875 258.328125 963.488281 255.265625 961.121094 C 249.152344 956.363281 243.179688 951.34375 237.628906 945.863281 C 226.433594 934.972656 216.253906 922.824219 207.480469 909.574219 C 206.34375 907.945312 205.304688 906.257812 204.285156 904.542969 L 201.191406 899.441406 C 199.167969 896.003906 197.351562 892.449219 195.425781 888.929688 C 193.65625 885.347656 191.957031 881.714844 190.269531 878.058594 C 188.753906 874.351562 187.132812 870.65625 185.71875 866.894531 C 180.023438 851.804688 176.03125 835.972656 173.734375 819.835938 L 172.929688 813.765625 C 172.648438 811.742188 172.554688 809.710938 172.367188 807.679688 L 171.871094 801.570312 L 171.632812 795.347656 L 171.421875 790.023438 C 171.410156 788.019531 171.492188 785.703125 171.535156 783.550781 " fill-opacity="1" fill-rule="nonzero"/></g><g transform="matrix(1, 0, 0, 1, 436, 946)"><g clip-path="url(#0477229839)"><g fill="#243544" fill-opacity="1"><g transform="translate(2.227458, 110.194597)"><g><path d="M 42.015625 1.09375 C 35.359375 1.09375 29.429688 -0.429688 24.234375 -3.484375 C 19.035156 -6.535156 14.960938 -11 12.015625 -16.875 C 9.066406 -22.75 7.59375 -29.796875 7.59375 -38.015625 C 7.59375 -46.234375 9.066406 -53.28125 12.015625 -59.15625 C 14.960938 -65.03125 19.035156 -69.492188 24.234375 -72.546875 C 29.429688 -75.597656 35.359375 -77.125 42.015625 -77.125 C 49.117188 -77.125 55.03125 -75.78125 59.75 -73.09375 C 64.46875 -70.40625 67.863281 -66.359375 69.9375 -60.953125 L 64.21875 -57.15625 L 62.921875 -57.15625 C 60.835938 -61.488281 58.128906 -64.5625 54.796875 -66.375 C 51.472656 -68.195312 47.210938 -69.109375 42.015625 -69.109375 C 37.234375 -69.109375 32.988281 -68.039062 29.28125 -65.90625 C 25.570312 -63.78125 22.625 -60.398438 20.4375 -55.765625 C 18.25 -51.140625 17.15625 -45.222656 17.15625 -38.015625 C 17.15625 -30.804688 18.25 -24.894531 20.4375 -20.28125 C 22.625 -15.664062 25.570312 -12.289062 29.28125 -10.15625 C 32.988281 -8.03125 37.234375 -6.96875 42.015625 -6.96875 C 47.523438 -6.96875 52.03125 -8.207031 55.53125 -10.6875 C 59.039062 -13.164062 61.644531 -17.175781 63.34375 -22.71875 L 64.640625 -22.71875 L 70.625 -19.765625 C 68.820312 -13.035156 65.484375 -7.875 60.609375 -4.28125 C 55.734375 -0.695312 49.535156 1.09375 42.015625 1.09375 Z M 42.015625 1.09375 "/></g></g></g><g fill="#243544" fill-opacity="1"><g transform="translate(76.786849, 110.194597)"><g><path d="M 22.828125 1.09375 C 18.773438 1.09375 15.585938 -0.0546875 13.265625 -2.359375 C 10.941406 -4.671875 9.78125 -8.113281 9.78125 -12.6875 L 9.78125 -80.390625 L 18.25 -80.390625 L 18.25 -13.265625 C 18.25 -10.867188 18.707031 -9.140625 19.625 -8.078125 C 20.550781 -7.023438 21.984375 -6.5 23.921875 -6.5 C 25.097656 -6.5 26.296875 -6.691406 27.515625 -7.078125 L 28.234375 -6.859375 L 29.21875 -0.203125 C 28.601562 0.210938 27.710938 0.53125 26.546875 0.75 C 25.390625 0.976562 24.148438 1.09375 22.828125 1.09375 Z M 22.828125 1.09375 "/></g></g></g><g fill="#243544" fill-opacity="1"><g transform="translate(107.983246, 110.194597)"><g><path d="M 32.921875 1.09375 C 27.515625 1.09375 22.804688 -0.046875 18.796875 -2.328125 C 14.796875 -4.617188 11.710938 -7.992188 9.546875 -12.453125 C 7.378906 -16.910156 6.296875 -22.3125 6.296875 -28.65625 C 6.296875 -35 7.378906 -40.40625 9.546875 -44.875 C 11.710938 -49.351562 14.796875 -52.734375 18.796875 -55.015625 C 22.804688 -57.304688 27.515625 -58.453125 32.921875 -58.453125 C 38.328125 -58.453125 43.03125 -57.304688 47.03125 -55.015625 C 51.039062 -52.734375 54.128906 -49.351562 56.296875 -44.875 C 58.460938 -40.40625 59.546875 -35 59.546875 -28.65625 C 59.546875 -22.3125 58.460938 -16.910156 56.296875 -12.453125 C 54.128906 -7.992188 51.039062 -4.617188 47.03125 -2.328125 C 43.03125 -0.046875 38.328125 1.09375 32.921875 1.09375 Z M 32.921875 -6.5 C 38.640625 -6.5 43.015625 -8.300781 46.046875 -11.90625 C 49.078125 -15.507812 50.59375 -21.09375 50.59375 -28.65625 C 50.59375 -36.25 49.078125 -41.847656 46.046875 -45.453125 C 43.015625 -49.054688 38.640625 -50.859375 32.921875 -50.859375 C 27.203125 -50.859375 22.816406 -49.046875 19.765625 -45.421875 C 16.710938 -41.796875 15.1875 -36.207031 15.1875 -28.65625 C 15.1875 -21.09375 16.710938 -15.507812 19.765625 -11.90625 C 22.816406 -8.300781 27.203125 -6.5 32.921875 -6.5 Z M 32.921875 -6.5 "/></g></g></g><g fill="#243544" fill-opacity="1"><g transform="translate(173.807645, 110.194597)"><g><path d="M 28.34375 1.09375 C 21.851562 1.09375 17.019531 -0.617188 13.84375 -4.046875 C 10.675781 -7.484375 9.09375 -12.515625 9.09375 -19.140625 L 9.09375 -57.359375 L 17.578125 -57.359375 L 17.578125 -19.34375 C 17.578125 -10.644531 21.664062 -6.296875 29.84375 -6.296875 C 35.050781 -6.296875 39.160156 -7.992188 42.171875 -11.390625 C 45.191406 -14.785156 46.703125 -20.296875 46.703125 -27.921875 L 46.703125 -57.359375 L 55.171875 -57.359375 L 55.171875 0 L 47.171875 0 L 47.171875 -9 L 46.078125 -9.25 C 44.097656 -5.75 41.726562 -3.148438 38.96875 -1.453125 C 36.21875 0.242188 32.675781 1.09375 28.34375 1.09375 Z M 28.34375 1.09375 "/></g></g></g><g fill="#243544" fill-opacity="1"><g transform="translate(238.95616, 110.194597)"><g><path d="M 29.75 1.09375 C 25.132812 1.09375 21.066406 -0.00390625 17.546875 -2.203125 C 14.023438 -4.410156 11.269531 -7.734375 9.28125 -12.171875 C 7.289062 -16.609375 6.296875 -22.101562 6.296875 -28.65625 C 6.296875 -35.207031 7.332031 -40.707031 9.40625 -45.15625 C 11.488281 -49.613281 14.359375 -52.941406 18.015625 -55.140625 C 21.671875 -57.347656 25.910156 -58.453125 30.734375 -58.453125 C 34.546875 -58.453125 37.976562 -57.734375 41.03125 -56.296875 C 44.082031 -54.859375 46.695312 -52.488281 48.875 -49.1875 L 49.96875 -49.40625 L 49.96875 -80.390625 L 58.453125 -80.390625 L 58.453125 0 L 49.96875 0 L 49.96875 -8.375 L 48.875 -8.578125 C 47.007812 -5.734375 44.472656 -3.410156 41.265625 -1.609375 C 38.054688 0.191406 34.21875 1.09375 29.75 1.09375 Z M 32.390625 -6.5 C 37.734375 -6.5 42 -8.328125 45.1875 -11.984375 C 48.375 -15.640625 49.96875 -21.195312 49.96875 -28.65625 C 49.96875 -36.144531 48.375 -41.71875 45.1875 -45.375 C 42 -49.03125 37.734375 -50.859375 32.390625 -50.859375 C 26.878906 -50.859375 22.632812 -49.070312 19.65625 -45.5 C 16.675781 -41.925781 15.1875 -36.3125 15.1875 -28.65625 C 15.1875 -13.882812 20.921875 -6.5 32.390625 -6.5 Z M 32.390625 -6.5 "/></g></g></g><g fill="#243544" fill-opacity="1"><g transform="translate(307.432291, 110.194597)"><g><path d="M 33.234375 0 L 21.53125 0 L 4.109375 -76.03125 L 12.953125 -76.03125 L 27.25 -13.15625 L 28.546875 -13.15625 L 45.609375 -76.03125 L 53.875 -76.03125 L 70.9375 -13.15625 L 72.234375 -13.15625 L 86.578125 -76.03125 L 95.15625 -76.03125 L 77.796875 0 L 66.046875 0 L 50.1875 -57.5625 L 49.09375 -57.5625 Z M 33.234375 0 "/></g></g></g><g fill="#243544" fill-opacity="1"><g transform="translate(406.688865, 110.194597)"><g><path d="M 14.25 -68.4375 C 12.445312 -68.4375 10.984375 -69 9.859375 -70.125 C 8.734375 -71.25 8.171875 -72.679688 8.171875 -74.421875 C 8.171875 -76.148438 8.734375 -77.578125 9.859375 -78.703125 C 10.984375 -79.828125 12.445312 -80.390625 14.25 -80.390625 C 16.050781 -80.390625 17.515625 -79.828125 18.640625 -78.703125 C 19.765625 -77.578125 20.328125 -76.148438 20.328125 -74.421875 C 20.328125 -72.679688 19.765625 -71.25 18.640625 -70.125 C 17.515625 -69 16.050781 -68.4375 14.25 -68.4375 Z M 9.984375 0 L 9.984375 -57.359375 L 18.453125 -57.359375 L 18.453125 0 Z M 9.984375 0 "/></g></g></g><g fill="#243544" fill-opacity="1"><g transform="translate(435.129619, 110.194597)"><g><path d="M 38.796875 -9.09375 L 41.5 -3.015625 C 40.144531 -1.660156 38.363281 -0.640625 36.15625 0.046875 C 33.957031 0.742188 31.578125 1.09375 29.015625 1.09375 C 18.054688 1.09375 12.578125 -4.453125 12.578125 -15.546875 L 12.578125 -50.4375 L 2.59375 -50.4375 L 2.59375 -57.40625 L 12.578125 -57.40625 L 12.578125 -69.53125 L 21.0625 -70.9375 L 21.0625 -57.40625 L 39.515625 -57.40625 L 39.515625 -50.4375 L 21.0625 -50.4375 L 21.0625 -16.375 C 21.0625 -9.789062 23.921875 -6.5 29.640625 -6.5 C 32.765625 -6.5 35.453125 -7.363281 37.703125 -9.09375 Z M 38.796875 -9.09375 "/></g></g></g><g fill="#243544" fill-opacity="1"><g transform="translate(478.804576, 110.194597)"><g><path d="M 9.984375 0 L 9.984375 -80.390625 L 18.453125 -80.390625 L 18.453125 -49.1875 L 19.546875 -48.984375 C 23.640625 -55.296875 29.550781 -58.453125 37.28125 -58.453125 C 44.1875 -58.453125 49.1875 -56.691406 52.28125 -53.171875 C 55.382812 -49.648438 56.9375 -44.234375 56.9375 -36.921875 L 56.9375 0 L 48.46875 0 L 48.46875 -36.71875 C 48.46875 -40.175781 48.023438 -42.953125 47.140625 -45.046875 C 46.253906 -47.148438 44.882812 -48.675781 43.03125 -49.625 C 41.175781 -50.582031 38.738281 -51.0625 35.71875 -51.0625 C 30.519531 -51.0625 26.34375 -49.378906 23.1875 -46.015625 C 20.03125 -42.660156 18.453125 -37.132812 18.453125 -29.4375 L 18.453125 0 Z M 9.984375 0 "/></g></g></g><g fill="#243544" fill-opacity="1"><g transform="translate(544.836951, 110.194597)"><g><path d="M 33.234375 1.09375 C 28.441406 1.09375 24.148438 0.441406 20.359375 -0.859375 C 16.566406 -2.160156 13.40625 -3.867188 10.875 -5.984375 C 8.34375 -8.097656 6.453125 -10.421875 5.203125 -12.953125 L 10.09375 -18.875 L 11.390625 -18.875 C 16.097656 -10.9375 23.378906 -6.96875 33.234375 -6.96875 C 38.953125 -6.96875 43.207031 -8.160156 46 -10.546875 C 48.789062 -12.941406 50.1875 -16.273438 50.1875 -20.546875 C 50.1875 -23.035156 49.722656 -25.144531 48.796875 -26.875 C 47.878906 -28.613281 46.363281 -30.097656 44.25 -31.328125 C 42.132812 -32.554688 39.257812 -33.625 35.625 -34.53125 L 26.734375 -36.71875 C 20.109375 -38.3125 15.226562 -40.847656 12.09375 -44.328125 C 8.957031 -47.816406 7.390625 -52.226562 7.390625 -57.5625 C 7.390625 -61.34375 8.359375 -64.710938 10.296875 -67.671875 C 12.234375 -70.640625 15.070312 -72.957031 18.8125 -74.625 C 22.5625 -76.289062 27.035156 -77.125 32.234375 -77.125 C 37.960938 -77.125 42.789062 -76.316406 46.71875 -74.703125 C 50.65625 -73.085938 53.800781 -70.671875 56.15625 -67.453125 L 51.796875 -61.578125 L 50.5 -61.578125 C 48.3125 -64.242188 45.726562 -66.195312 42.75 -67.4375 C 39.769531 -68.6875 36.265625 -69.3125 32.234375 -69.3125 C 26.972656 -69.3125 23 -68.289062 20.3125 -66.25 C 17.625 -64.207031 16.28125 -61.382812 16.28125 -57.78125 C 16.28125 -54.34375 17.265625 -51.609375 19.234375 -49.578125 C 21.210938 -47.554688 24.539062 -45.988281 29.21875 -44.875 L 38.328125 -42.6875 C 45.710938 -40.957031 51.054688 -38.296875 54.359375 -34.703125 C 57.671875 -31.117188 59.328125 -26.535156 59.328125 -20.953125 C 59.328125 -16.660156 58.363281 -12.859375 56.4375 -9.546875 C 54.519531 -6.234375 51.601562 -3.628906 47.6875 -1.734375 C 43.769531 0.148438 38.953125 1.09375 33.234375 1.09375 Z M 33.234375 1.09375 "/></g></g></g><g fill="#243544" fill-opacity="1"><g transform="translate(609.985466, 110.194597)"><g><path d="M 38.796875 -9.09375 L 41.5 -3.015625 C 40.144531 -1.660156 38.363281 -0.640625 36.15625 0.046875 C 33.957031 0.742188 31.578125 1.09375 29.015625 1.09375 C 18.054688 1.09375 12.578125 -4.453125 12.578125 -15.546875 L 12.578125 -50.4375 L 2.59375 -50.4375 L 2.59375 -57.40625 L 12.578125 -57.40625 L 12.578125 -69.53125 L 21.0625 -70.9375 L 21.0625 -57.40625 L 39.515625 -57.40625 L 39.515625 -50.4375 L 21.0625 -50.4375 L 21.0625 -16.375 C 21.0625 -9.789062 23.921875 -6.5 29.640625 -6.5 C 32.765625 -6.5 35.453125 -7.363281 37.703125 -9.09375 Z M 38.796875 -9.09375 "/></g></g></g><g fill="#243544" fill-opacity="1"><g transform="translate(653.660423, 110.194597)"><g><path d="M 54.65625 -26.734375 L 15.234375 -26.734375 C 15.472656 -19.765625 17.144531 -14.648438 20.25 -11.390625 C 23.351562 -8.128906 27.609375 -6.5 33.015625 -6.5 C 37.109375 -6.5 40.398438 -7.226562 42.890625 -8.6875 C 45.390625 -10.144531 47.351562 -12.429688 48.78125 -15.546875 L 49.875 -15.546875 L 55.375 -12.265625 C 53.71875 -8.109375 51.054688 -4.84375 47.390625 -2.46875 C 43.734375 -0.09375 38.941406 1.09375 33.015625 1.09375 C 27.472656 1.09375 22.707031 0.00390625 18.71875 -2.171875 C 14.726562 -4.359375 11.660156 -7.671875 9.515625 -12.109375 C 7.367188 -16.546875 6.296875 -22.0625 6.296875 -28.65625 C 6.296875 -35.164062 7.429688 -40.65625 9.703125 -45.125 C 11.972656 -49.601562 15.070312 -52.941406 19 -55.140625 C 22.9375 -57.347656 27.4375 -58.453125 32.5 -58.453125 C 39.851562 -58.453125 45.59375 -56.378906 49.71875 -52.234375 C 53.84375 -48.085938 55.921875 -41.941406 55.953125 -33.796875 C 55.953125 -30.609375 55.882812 -28.460938 55.75 -27.359375 Z M 47.578125 -33.796875 C 47.441406 -39.898438 46.085938 -44.335938 43.515625 -47.109375 C 40.953125 -49.890625 37.28125 -51.28125 32.5 -51.28125 C 27.476562 -51.28125 23.535156 -49.882812 20.671875 -47.09375 C 17.804688 -44.300781 16.0625 -39.867188 15.4375 -33.796875 Z M 47.578125 -33.796875 "/></g></g></g><g fill="#243544" fill-opacity="1"><g transform="translate(714.805363, 110.194597)"><g><path d="M 9.984375 23.25 L 9.984375 -57.359375 L 18.453125 -57.359375 L 18.453125 -48.78125 L 19.546875 -48.5625 C 23.816406 -55.15625 30.078125 -58.453125 38.328125 -58.453125 C 43.109375 -58.453125 47.285156 -57.359375 50.859375 -55.171875 C 54.429688 -52.984375 57.203125 -49.660156 59.171875 -45.203125 C 61.148438 -40.753906 62.140625 -35.238281 62.140625 -28.65625 C 62.140625 -22.101562 61.097656 -16.609375 59.015625 -12.171875 C 56.941406 -7.734375 54.066406 -4.410156 50.390625 -2.203125 C 46.710938 -0.00390625 42.484375 1.09375 37.703125 1.09375 C 33.816406 1.09375 30.363281 0.414062 27.34375 -0.9375 C 24.332031 -2.289062 21.734375 -4.507812 19.546875 -7.59375 L 18.453125 -7.390625 L 18.453125 23.25 Z M 35.828125 -6.5 C 47.441406 -6.5 53.25 -13.882812 53.25 -28.65625 C 53.25 -43.457031 47.441406 -50.859375 35.828125 -50.859375 C 32.429688 -50.859375 29.429688 -50.078125 26.828125 -48.515625 C 24.234375 -46.953125 22.1875 -44.515625 20.6875 -41.203125 C 19.195312 -37.898438 18.453125 -33.71875 18.453125 -28.65625 C 18.453125 -23.625 19.195312 -19.453125 20.6875 -16.140625 C 22.1875 -12.835938 24.234375 -10.40625 26.828125 -8.84375 C 29.429688 -7.28125 32.429688 -6.5 35.828125 -6.5 Z M 35.828125 -6.5 "/></g></g></g><g fill="#243544" fill-opacity="1"><g transform="translate(783.229462, 110.194597)"><g><path d="M 9.984375 0 L 9.984375 -80.390625 L 18.453125 -80.390625 L 18.453125 -49.1875 L 19.546875 -48.984375 C 23.640625 -55.296875 29.550781 -58.453125 37.28125 -58.453125 C 44.1875 -58.453125 49.1875 -56.691406 52.28125 -53.171875 C 55.382812 -49.648438 56.9375 -44.234375 56.9375 -36.921875 L 56.9375 0 L 48.46875 0 L 48.46875 -36.71875 C 48.46875 -40.175781 48.023438 -42.953125 47.140625 -45.046875 C 46.253906 -47.148438 44.882812 -48.675781 43.03125 -49.625 C 41.175781 -50.582031 38.738281 -51.0625 35.71875 -51.0625 C 30.519531 -51.0625 26.34375 -49.378906 23.1875 -46.015625 C 20.03125 -42.660156 18.453125 -37.132812 18.453125 -29.4375 L 18.453125 0 Z M 9.984375 0 "/></g></g></g><g fill="#243544" fill-opacity="1"><g transform="translate(849.261837, 110.194597)"><g><path d="M 54.65625 -26.734375 L 15.234375 -26.734375 C 15.472656 -19.765625 17.144531 -14.648438 20.25 -11.390625 C 23.351562 -8.128906 27.609375 -6.5 33.015625 -6.5 C 37.109375 -6.5 40.398438 -7.226562 42.890625 -8.6875 C 45.390625 -10.144531 47.351562 -12.429688 48.78125 -15.546875 L 49.875 -15.546875 L 55.375 -12.265625 C 53.71875 -8.109375 51.054688 -4.84375 47.390625 -2.46875 C 43.734375 -0.09375 38.941406 1.09375 33.015625 1.09375 C 27.472656 1.09375 22.707031 0.00390625 18.71875 -2.171875 C 14.726562 -4.359375 11.660156 -7.671875 9.515625 -12.109375 C 7.367188 -16.546875 6.296875 -22.0625 6.296875 -28.65625 C 6.296875 -35.164062 7.429688 -40.65625 9.703125 -45.125 C 11.972656 -49.601562 15.070312 -52.941406 19 -55.140625 C 22.9375 -57.347656 27.4375 -58.453125 32.5 -58.453125 C 39.851562 -58.453125 45.59375 -56.378906 49.71875 -52.234375 C 53.84375 -48.085938 55.921875 -41.941406 55.953125 -33.796875 C 55.953125 -30.609375 55.882812 -28.460938 55.75 -27.359375 Z M 47.578125 -33.796875 C 47.441406 -39.898438 46.085938 -44.335938 43.515625 -47.109375 C 40.953125 -49.890625 37.28125 -51.28125 32.5 -51.28125 C 27.476562 -51.28125 23.535156 -49.882812 20.671875 -47.09375 C 17.804688 -44.300781 16.0625 -39.867188 15.4375 -33.796875 Z M 47.578125 -33.796875 "/></g></g></g><g fill="#243544" fill-opacity="1"><g transform="translate(910.406776, 110.194597)"><g><path d="M 9.984375 0 L 9.984375 -57.359375 L 18.046875 -57.359375 L 18.046875 -48.359375 L 19.140625 -48.109375 C 21.046875 -51.460938 23.476562 -54.023438 26.4375 -55.796875 C 29.40625 -57.566406 33.019531 -58.453125 37.28125 -58.453125 C 44.1875 -58.453125 49.1875 -56.691406 52.28125 -53.171875 C 55.382812 -49.648438 56.9375 -44.234375 56.9375 -36.921875 L 56.9375 0 L 48.46875 0 L 48.46875 -36.71875 C 48.46875 -40.175781 48.023438 -42.953125 47.140625 -45.046875 C 46.253906 -47.148438 44.882812 -48.675781 43.03125 -49.625 C 41.175781 -50.582031 38.738281 -51.0625 35.71875 -51.0625 C 30.5625 -51.0625 26.394531 -49.351562 23.21875 -45.9375 C 20.039062 -42.53125 18.453125 -37.03125 18.453125 -29.4375 L 18.453125 0 Z M 9.984375 0 "/></g></g></g></g></g><g transform="matrix(1, 0, 0, 1, 431, 704)"><g clip-path="url(#4e4e2b1372)"><g fill="#243544" fill-opacity="1"><g transform="translate(0.479889, 240.497609)"><g><path d="M 137.734375 -46.921875 C 145.640625 -46.921875 153.316406 -48.113281 160.765625 -50.5 C 168.222656 -52.894531 173.703125 -55.195312 177.203125 -57.40625 L 182.453125 -61 L 204.53125 -16.84375 C 203.789062 -16.289062 202.773438 -15.550781 201.484375 -14.625 C 200.203125 -13.707031 197.210938 -12.003906 192.515625 -9.515625 C 187.828125 -7.035156 182.8125 -4.875 177.46875 -3.03125 C 172.132812 -1.195312 165.144531 0.453125 156.5 1.921875 C 147.851562 3.398438 138.929688 4.140625 129.734375 4.140625 C 108.566406 4.140625 88.503906 -1.054688 69.546875 -11.453125 C 50.597656 -21.847656 35.328125 -36.15625 23.734375 -54.375 C 12.140625 -72.59375 6.34375 -92.28125 6.34375 -113.4375 C 6.34375 -129.445312 9.75 -144.8125 16.5625 -159.53125 C 23.375 -174.257812 32.4375 -186.863281 43.75 -197.34375 C 55.0625 -207.832031 68.257812 -216.207031 83.34375 -222.46875 C 98.4375 -228.726562 113.898438 -231.859375 129.734375 -231.859375 C 144.453125 -231.859375 158.019531 -230.109375 170.4375 -226.609375 C 182.863281 -223.109375 191.648438 -219.613281 196.796875 -216.125 L 204.53125 -210.875 L 182.453125 -166.71875 C 181.160156 -167.820312 179.222656 -169.15625 176.640625 -170.71875 C 174.066406 -172.28125 168.914062 -174.347656 161.1875 -176.921875 C 153.457031 -179.503906 145.640625 -180.796875 137.734375 -180.796875 C 125.222656 -180.796875 114 -178.769531 104.0625 -174.71875 C 94.125 -170.664062 86.253906 -165.328125 80.453125 -158.703125 C 74.660156 -152.078125 70.242188 -144.945312 67.203125 -137.3125 C 64.171875 -129.675781 62.65625 -121.90625 62.65625 -114 C 62.65625 -96.695312 69.140625 -81.191406 82.109375 -67.484375 C 95.085938 -53.773438 113.628906 -46.921875 137.734375 -46.921875 Z M 137.734375 -46.921875 "/></g></g></g><g fill="#243544" fill-opacity="1"><g transform="translate(208.316508, 240.497609)"><g><path d="M 191.28125 0 L 154.84375 -127.796875 L 118.40625 0 L 60.71875 0 L -4.140625 -227.71875 L 53.546875 -227.71875 L 92.46875 -71.484375 L 93.84375 -71.484375 L 135.25 -227.71875 L 174.4375 -227.71875 L 215.84375 -71.484375 L 217.21875 -71.484375 L 256.140625 -227.71875 L 313.546875 -227.71875 L 248.6875 0 Z M 191.28125 0 "/></g></g></g><g fill="#243544" fill-opacity="1"><g transform="translate(517.72524, 240.497609)"><g><path d="M 100.46875 -231.859375 C 112.800781 -231.859375 124.851562 -230.0625 136.625 -226.46875 C 148.40625 -222.882812 157.144531 -219.34375 162.84375 -215.84375 L 171.125 -210.328125 L 150.15625 -168.921875 C 148.5 -170.023438 146.195312 -171.453125 143.25 -173.203125 C 140.300781 -174.953125 134.78125 -177.296875 126.6875 -180.234375 C 118.59375 -183.179688 111.050781 -184.65625 104.0625 -184.65625 C 95.40625 -184.65625 88.734375 -182.8125 84.046875 -179.125 C 79.359375 -175.445312 77.015625 -170.484375 77.015625 -164.234375 C 77.015625 -161.097656 78.113281 -158.195312 80.3125 -155.53125 C 82.519531 -152.863281 86.289062 -150.007812 91.625 -146.96875 C 96.96875 -143.9375 101.660156 -141.5 105.703125 -139.65625 C 109.753906 -137.820312 116.015625 -135.066406 124.484375 -131.390625 C 139.203125 -125.128906 151.757812 -116.613281 162.15625 -105.84375 C 172.550781 -95.082031 177.75 -82.894531 177.75 -69.28125 C 177.75 -56.21875 175.398438 -44.804688 170.703125 -35.046875 C 166.015625 -25.296875 159.578125 -17.660156 151.390625 -12.140625 C 143.203125 -6.617188 134.140625 -2.523438 124.203125 0.140625 C 114.265625 2.804688 103.5 4.140625 91.90625 4.140625 C 81.976562 4.140625 72.226562 3.125 62.65625 1.09375 C 53.082031 -0.925781 45.078125 -3.453125 38.640625 -6.484375 C 32.203125 -9.523438 26.40625 -12.515625 21.25 -15.453125 C 16.101562 -18.398438 12.332031 -20.882812 9.9375 -22.90625 L 6.34375 -25.953125 L 32.296875 -69.5625 C 34.503906 -67.71875 37.539062 -65.367188 41.40625 -62.515625 C 45.269531 -59.660156 52.125 -55.84375 61.96875 -51.0625 C 71.8125 -46.28125 80.503906 -43.890625 88.046875 -43.890625 C 109.941406 -43.890625 120.890625 -51.34375 120.890625 -66.25 C 120.890625 -69.375 120.109375 -72.269531 118.546875 -74.9375 C 116.984375 -77.601562 114.222656 -80.269531 110.265625 -82.9375 C 106.304688 -85.601562 102.804688 -87.71875 99.765625 -89.28125 C 96.734375 -90.851562 91.769531 -93.25 84.875 -96.46875 C 77.976562 -99.6875 72.875 -102.125 69.5625 -103.78125 C 55.757812 -110.59375 45.082031 -119.101562 37.53125 -129.3125 C 29.988281 -139.519531 26.21875 -150.515625 26.21875 -162.296875 C 26.21875 -182.722656 33.757812 -199.421875 48.84375 -212.390625 C 63.9375 -225.367188 81.144531 -231.859375 100.46875 -231.859375 Z M 100.46875 -231.859375 "/></g></g></g></g></g></svg>